<svg width="16" height="15" viewBox="0 0 16 15" fill="none" xmlns="http://www.w3.org/2000/svg">
<path d="M1 6.057H14.9262M4.09627 1V2.44517M11.8323 1V2.44517M3.47655 14H12.452C13.3178 14 13.7518 14 14.0837 13.8418C14.3738 13.7032 14.6106 13.4822 14.7591 13.2113C14.9286 12.9015 14.9286 12.4985 14.9286 11.6882V4.75483C14.9286 3.94667 14.9286 3.5415 14.7591 3.23167C14.6106 2.96083 14.3738 2.73983 14.0837 2.60117C13.7518 2.443 13.3201 2.443 12.452 2.443H3.47655C2.6108 2.443 2.17677 2.443 1.84486 2.60117C1.55473 2.73983 1.31798 2.96083 1.16944 3.23167C1 3.5415 1 3.9445 1 4.75483V11.6882C1 12.4963 1 12.9015 1.16944 13.2113C1.31798 13.4822 1.55473 13.7032 1.84486 13.8418C2.17677 14 2.6108 14 3.47655 14Z" stroke="#7C7C7C" stroke-width="1.5" stroke-miterlimit="133.333" stroke-linecap="round" stroke-linejoin="round"/>
</svg>
