<svg width="49" height="49" viewBox="0 0 49 49" fill="none" xmlns="http://www.w3.org/2000/svg">
<rect width="49" height="49" rx="5" fill="#F65F2A"/>
<path d="M24.2035 24.7447H15.6741M15.4535 25.8435L14.0565 30.0186C13.3212 32.2893 12.88 33.4613 13.1741 34.1938C13.3947 34.7798 13.9094 35.2925 14.5712 35.439C15.3065 35.6588 16.4094 35.146 18.6153 34.1205L32.8065 27.7479C34.9388 26.7957 36.0418 26.283 36.4094 25.6237C36.7035 25.0377 36.7035 24.3785 36.4094 23.7925C36.0418 23.1333 35.0124 22.6205 32.8065 21.6683L18.5418 15.2957C16.3359 14.3435 15.233 13.8307 14.4977 14.0505C13.9094 14.197 13.3947 14.6365 13.1006 15.2957C12.8065 16.0282 13.1741 17.1269 13.983 19.4709L15.4535 23.7925C15.6006 24.1588 15.6741 24.3785 15.6741 24.5983C15.6741 24.7447 15.6741 24.9645 15.6741 25.111C15.6006 25.2575 15.5271 25.4772 15.4535 25.8435Z" stroke="white" stroke-width="2" stroke-miterlimit="133.333" stroke-linecap="round" stroke-linejoin="round"/>
</svg>
