<svg width="48" height="48" viewBox="0 0 48 48" fill="none" xmlns="http://www.w3.org/2000/svg">
<circle cx="24" cy="24" r="24" fill="#E3ED8F"/>
<g filter="url(#filter0_d_92_2464)">
<path d="M15 33.5223C15 33.5223 17.0326 33.7682 17.5253 33.8297C18.0797 33.8912 22.2064 35.0591 23.8694 34.9977C25.5324 34.9362 29.4744 34.26 30.4599 33.6453C31.4454 33.0306 31.2606 32.1085 31.199 31.5553C31.1374 31.002 31.507 30.3873 31.9997 29.5267C32.4925 28.6661 31.9381 27.9284 31.9381 27.6211C31.9381 27.3137 32.862 26.2072 32.9852 25.7155C33.1084 25.2852 32.3077 24.0557 32.2461 23.7484C32.1845 23.441 32.862 22.2731 32.9852 21.7813C33.1084 21.2895 32.4309 20.2445 32.1229 19.8142C31.8149 19.3839 30.891 19.0765 27.9962 19.0765C25.1629 19.0765 24.3006 18.8307 23.9926 18.2774C23.6846 17.7242 24.9165 16.003 25.4092 15.0194C25.902 14.0359 26.3331 12.0688 25.4092 10.2247C24.4853 8.38051 23.0071 8.87229 22.7607 10.0402C22.5144 11.2082 22.0216 13.4212 21.4673 14.2203C20.9745 15.0194 18.8804 16.5562 18.1413 18.3389C17.5869 20.1216 16.5398 22.1501 15.6159 22.7648L15 23.0107V33.5223Z" fill="white"/>
</g>
<defs>
<filter id="filter0_d_92_2464" x="11" y="7" width="26" height="34" filterUnits="userSpaceOnUse" color-interpolation-filters="sRGB">
<feFlood flood-opacity="0" result="BackgroundImageFix"/>
<feColorMatrix in="SourceAlpha" type="matrix" values="0 0 0 0 0 0 0 0 0 0 0 0 0 0 0 0 0 0 127 0" result="hardAlpha"/>
<feOffset dy="2"/>
<feGaussianBlur stdDeviation="2"/>
<feComposite in2="hardAlpha" operator="out"/>
<feColorMatrix type="matrix" values="0 0 0 0 0.797031 0 0 0 0 0.8375 0 0 0 0 0.450156 0 0 0 1 0"/>
<feBlend mode="normal" in2="BackgroundImageFix" result="effect1_dropShadow_92_2464"/>
<feBlend mode="normal" in="SourceGraphic" in2="effect1_dropShadow_92_2464" result="shape"/>
</filter>
</defs>
</svg>
