<svg width="48" height="48" viewBox="0 0 48 48" fill="none" xmlns="http://www.w3.org/2000/svg">
<circle cx="24" cy="24" r="24" fill="#E3ED8F"/>
<g filter="url(#filter0_d_92_2352)">
<path d="M30.8831 19.2196V15.6869C30.8831 12.028 27.7662 9 24 9C20.2338 9 17.1169 12.028 17.1169 15.6869V19.2196C15.1688 20.986 14 23.5093 14 26.285C14 31.7103 18.4156 36 24 36C29.5844 36 34 31.7103 34 26.285C34 23.5093 32.8312 20.986 30.8831 19.2196ZM18.1558 15.6869C18.1558 12.5327 20.7532 10.0093 24 10.0093C27.2468 10.0093 29.8442 12.5327 29.8442 15.6869V18.3364C28.2857 17.2009 26.2078 16.5701 24 16.5701C21.7922 16.5701 19.7143 17.2009 18.1558 18.3364V15.6869ZM24.6494 27.9252V29.3131C24.6494 29.6916 24.3896 29.9439 24 29.9439C23.6104 29.9439 23.3506 29.6916 23.3506 29.3131V27.9252C22.5714 27.6729 22.0519 26.9159 22.0519 26.1589C22.0519 25.1495 22.961 24.2664 24 24.2664C25.039 24.2664 25.9481 25.1495 25.9481 26.1589C25.9481 27.0421 25.4286 27.6729 24.6494 27.9252Z" fill="white"/>
</g>
<defs>
<filter id="filter0_d_92_2352" x="10" y="7" width="28" height="35" filterUnits="userSpaceOnUse" color-interpolation-filters="sRGB">
<feFlood flood-opacity="0" result="BackgroundImageFix"/>
<feColorMatrix in="SourceAlpha" type="matrix" values="0 0 0 0 0 0 0 0 0 0 0 0 0 0 0 0 0 0 127 0" result="hardAlpha"/>
<feOffset dy="2"/>
<feGaussianBlur stdDeviation="2"/>
<feComposite in2="hardAlpha" operator="out"/>
<feColorMatrix type="matrix" values="0 0 0 0 0.797031 0 0 0 0 0.8375 0 0 0 0 0.450156 0 0 0 1 0"/>
<feBlend mode="normal" in2="BackgroundImageFix" result="effect1_dropShadow_92_2352"/>
<feBlend mode="normal" in="SourceGraphic" in2="effect1_dropShadow_92_2352" result="shape"/>
</filter>
</defs>
</svg>
