<svg width="148" height="42" viewBox="0 0 148 42" fill="none" xmlns="http://www.w3.org/2000/svg">
<circle cx="21" cy="21" r="21" fill="url(#paint0_linear_92_2304)"/>
<mask id="mask0_92_2304" style="mask-type:alpha" maskUnits="userSpaceOnUse" x="0" y="0" width="42" height="42">
<circle cx="21" cy="21" r="21" fill="#E1EF6E"/>
</mask>
<g mask="url(#mask0_92_2304)">
<g filter="url(#filter0_d_92_2304)">
<path d="M8.485 43.88C7.915 43.88 7.525 43.715 7.315 43.385C7.105 43.055 7 42.695 7 42.305C7 40.445 7.18 38.315 7.54 35.915C7.93 33.515 8.395 23.13 8.935 20.76C9.415 18.75 9.94 14.875 10.51 13.135C11.11 11.395 11.635 9.97 12.085 8.86C12.745 7.3 13.495 6.115 14.335 5.305C15.205 4.465 16.21 4.045 17.35 4.045C18.19 4.045 18.94 4.33 19.6 4.9C20.26 5.44 20.65 6.43 20.77 7.87C20.95 9.61 21.16 11.365 21.4 13.135C21.64 14.905 21.91 16.525 22.21 17.995C22.51 19.435 22.825 20.545 23.155 21.325C23.425 22.015 23.815 22.36 24.325 22.36C24.895 22.36 25.39 22 25.81 21.28C26.2 20.62 26.62 19.72 27.07 18.58C27.52 17.44 27.955 16.24 28.375 14.98C28.825 13.69 29.215 12.52 29.545 11.47C29.935 10.33 30.37 9.19 30.85 8.05C31.36 6.88 32.005 5.92 32.785 5.17C33.565 4.39 34.54 4 35.71 4C36.79 4 37.555 4.375 38.005 5.125C38.485 5.845 38.725 7 38.725 8.59C38.725 9.82 38.68 11.11 38.59 12.46C38.56 13.24 38.515 14.05 38.455 14.89C38.425 15.7 38.41 16.54 38.41 17.41C38.41 18.76 38.47 20.185 38.59 21.685C38.74 23.185 39.01 24.595 39.4 25.915C39.82 27.235 40.435 28.345 41.245 29.245C41.485 29.455 41.695 29.695 41.875 29.965C42.085 30.235 42.19 30.535 42.19 30.865C42.19 31.615 41.785 32.305 40.975 32.935C40.195 33.535 39.295 33.835 38.275 33.835C37.345 33.835 36.655 33.535 36.205 32.935C35.755 32.335 35.395 31.525 35.125 30.505C34.825 29.245 34.615 27.895 34.495 26.455C34.375 25.015 34.315 23.62 34.315 22.27C34.315 20.11 34.39 18.13 34.54 16.33C34.72 14.5 34.81 13.15 34.81 12.28C34.81 11.8 34.765 11.455 34.675 11.245C34.585 11.005 34.36 10.885 34 10.885C33.58 10.885 33.22 11.08 32.92 11.47C32.65 11.83 32.425 12.34 32.245 13C31.855 14.26 31.42 15.61 30.94 17.05C30.46 18.49 29.95 19.9 29.41 21.28C28.9 22.66 28.345 23.89 27.745 24.97C27.055 26.23 26.305 27.085 25.495 27.535C24.715 27.955 23.92 28.165 23.11 28.165C21.85 28.165 20.89 27.775 20.23 26.995C19.6 26.185 19.135 25.3 18.835 24.34C18.445 23.05 18.085 21.37 17.755 19.3C17.425 17.2 17.185 14.845 17.035 12.235C16.975 11.125 16.615 10.57 15.955 10.57C15.235 10.57 14.665 11.11 14.245 12.19C13.885 13.27 13.54 16.545 13.21 18.015C12.88 19.455 12.61 20.97 12.4 22.56C12.22 24.12 12.13 33.665 12.13 35.195C12.13 36.485 12.175 37.61 12.265 38.57C12.385 39.53 12.445 40.43 12.445 41.27C12.445 41.87 12.205 42.365 11.725 42.755C11.275 43.145 10.735 43.43 10.105 43.61C9.475 43.79 8.935 43.88 8.485 43.88Z" fill="white"/>
</g>
</g>
<path d="M59.224 28V15.4H61.96L65.974 23.392L69.934 15.4H72.67V28H70.366V19.306L66.856 26.2H65.038L61.528 19.306V28H59.224ZM78.6786 28.216C77.7786 28.216 76.9806 28.024 76.2846 27.64C75.5886 27.256 75.0426 26.716 74.6466 26.02C74.2506 25.324 74.0526 24.52 74.0526 23.608C74.0526 22.684 74.2446 21.862 74.6286 21.142C75.0246 20.422 75.5646 19.864 76.2486 19.468C76.9446 19.06 77.7606 18.856 78.6966 18.856C79.5726 18.856 80.3466 19.048 81.0186 19.432C81.6906 19.816 82.2126 20.344 82.5846 21.016C82.9686 21.676 83.1606 22.414 83.1606 23.23C83.1606 23.362 83.1546 23.5 83.1426 23.644C83.1426 23.788 83.1366 23.938 83.1246 24.094H76.3386C76.3866 24.79 76.6266 25.336 77.0586 25.732C77.5026 26.128 78.0366 26.326 78.6606 26.326C79.1286 26.326 79.5186 26.224 79.8306 26.02C80.1546 25.804 80.3946 25.528 80.5506 25.192H82.8906C82.7226 25.756 82.4406 26.272 82.0446 26.74C81.6606 27.196 81.1806 27.556 80.6046 27.82C80.0406 28.084 79.3986 28.216 78.6786 28.216ZM78.6966 20.728C78.1326 20.728 77.6346 20.89 77.2026 21.214C76.7706 21.526 76.4946 22.006 76.3746 22.654H80.8206C80.7846 22.066 80.5686 21.598 80.1726 21.25C79.7766 20.902 79.2846 20.728 78.6966 20.728ZM82.9172 28L86.1572 23.536L82.9172 19.072H85.3832L87.6512 22.24L89.9012 19.072H92.3852L89.1272 23.536L92.3852 28H89.9012L87.6512 24.832L85.3832 28H82.9172ZM94.375 17.686C93.955 17.686 93.607 17.56 93.331 17.308C93.067 17.056 92.935 16.738 92.935 16.354C92.935 15.97 93.067 15.658 93.331 15.418C93.607 15.166 93.955 15.04 94.375 15.04C94.795 15.04 95.137 15.166 95.401 15.418C95.677 15.658 95.815 15.97 95.815 16.354C95.815 16.738 95.677 17.056 95.401 17.308C95.137 17.56 94.795 17.686 94.375 17.686ZM93.223 28V19.072H95.527V28H93.223ZM101.586 28.216C100.674 28.216 99.8699 28.018 99.1739 27.622C98.4779 27.226 97.9259 26.674 97.5179 25.966C97.1219 25.258 96.9239 24.448 96.9239 23.536C96.9239 22.624 97.1219 21.814 97.5179 21.106C97.9259 20.398 98.4779 19.846 99.1739 19.45C99.8699 19.054 100.674 18.856 101.586 18.856C102.726 18.856 103.686 19.156 104.466 19.756C105.246 20.344 105.744 21.16 105.96 22.204H103.53C103.41 21.772 103.17 21.436 102.81 21.196C102.462 20.944 102.048 20.818 101.568 20.818C100.932 20.818 100.392 21.058 99.9479 21.538C99.5039 22.018 99.2819 22.684 99.2819 23.536C99.2819 24.388 99.5039 25.054 99.9479 25.534C100.392 26.014 100.932 26.254 101.568 26.254C102.048 26.254 102.462 26.134 102.81 25.894C103.17 25.654 103.41 25.312 103.53 24.868H105.96C105.744 25.876 105.246 26.686 104.466 27.298C103.686 27.91 102.726 28.216 101.586 28.216ZM110.363 28.216C109.595 28.216 108.965 28.096 108.473 27.856C107.981 27.604 107.615 27.274 107.375 26.866C107.135 26.458 107.015 26.008 107.015 25.516C107.015 24.688 107.339 24.016 107.987 23.5C108.635 22.984 109.607 22.726 110.903 22.726H113.171V22.51C113.171 21.898 112.997 21.448 112.649 21.16C112.301 20.872 111.869 20.728 111.353 20.728C110.885 20.728 110.477 20.842 110.129 21.07C109.781 21.286 109.565 21.61 109.481 22.042H107.231C107.291 21.394 107.507 20.83 107.879 20.35C108.263 19.87 108.755 19.504 109.355 19.252C109.955 18.988 110.627 18.856 111.371 18.856C112.643 18.856 113.645 19.174 114.377 19.81C115.109 20.446 115.475 21.346 115.475 22.51V28H113.513L113.297 26.56C113.033 27.04 112.661 27.436 112.181 27.748C111.713 28.06 111.107 28.216 110.363 28.216ZM110.885 26.416C111.545 26.416 112.055 26.2 112.415 25.768C112.787 25.336 113.021 24.802 113.117 24.166H111.155C110.543 24.166 110.105 24.28 109.841 24.508C109.577 24.724 109.445 24.994 109.445 25.318C109.445 25.666 109.577 25.936 109.841 26.128C110.105 26.32 110.453 26.416 110.885 26.416ZM116.954 28V19.072H118.988L119.168 20.584C119.444 20.056 119.84 19.636 120.356 19.324C120.884 19.012 121.502 18.856 122.21 18.856C123.314 18.856 124.172 19.204 124.784 19.9C125.396 20.596 125.702 21.616 125.702 22.96V28H123.398V23.176C123.398 22.408 123.242 21.82 122.93 21.412C122.618 21.004 122.132 20.8 121.472 20.8C120.824 20.8 120.29 21.028 119.87 21.484C119.462 21.94 119.258 22.576 119.258 23.392V28H116.954ZM127.239 28V15.4H131.901C132.909 15.4 133.743 15.568 134.403 15.904C135.063 16.24 135.555 16.702 135.879 17.29C136.203 17.878 136.365 18.538 136.365 19.27C136.365 19.966 136.209 20.608 135.897 21.196C135.585 21.772 135.099 22.24 134.439 22.6C133.779 22.948 132.933 23.122 131.901 23.122H129.543V28H127.239ZM129.543 21.25H131.757C132.561 21.25 133.137 21.076 133.485 20.728C133.845 20.368 134.025 19.882 134.025 19.27C134.025 18.646 133.845 18.16 133.485 17.812C133.137 17.452 132.561 17.272 131.757 17.272H129.543V21.25ZM137.398 28V15.04H139.702V20.44C140.002 19.948 140.404 19.564 140.908 19.288C141.424 19 142.012 18.856 142.672 18.856C143.776 18.856 144.628 19.204 145.228 19.9C145.84 20.596 146.146 21.616 146.146 22.96V28H143.86V23.176C143.86 22.408 143.704 21.82 143.392 21.412C143.092 21.004 142.612 20.8 141.952 20.8C141.304 20.8 140.764 21.028 140.332 21.484C139.912 21.94 139.702 22.576 139.702 23.392V28H137.398Z" fill="#14110F"/>
<defs>
<filter id="filter0_d_92_2304" x="3" y="4" width="43.1904" height="47.88" filterUnits="userSpaceOnUse" color-interpolation-filters="sRGB">
<feFlood flood-opacity="0" result="BackgroundImageFix"/>
<feColorMatrix in="SourceAlpha" type="matrix" values="0 0 0 0 0 0 0 0 0 0 0 0 0 0 0 0 0 0 127 0" result="hardAlpha"/>
<feOffset dy="4"/>
<feGaussianBlur stdDeviation="2"/>
<feComposite in2="hardAlpha" operator="out"/>
<feColorMatrix type="matrix" values="0 0 0 0 0 0 0 0 0 0 0 0 0 0 0 0 0 0 0.04 0"/>
<feBlend mode="normal" in2="BackgroundImageFix" result="effect1_dropShadow_92_2304"/>
<feBlend mode="normal" in="SourceGraphic" in2="effect1_dropShadow_92_2304" result="shape"/>
</filter>
<linearGradient id="paint0_linear_92_2304" x1="42" y1="8" x2="5" y2="35" gradientUnits="userSpaceOnUse">
<stop stop-color="#D6E941"/>
<stop offset="1" stop-color="#EAF49B"/>
</linearGradient>
</defs>
</svg>
