<svg width="24" height="24" viewBox="0 0 24 24" fill="none" xmlns="http://www.w3.org/2000/svg">
<path d="M21.5002 10L18.0002 15.5L11.5002 21.5L2.00016 18.5C1.83349 15.6667 1.60016 9.7 2.00016 8.5C2.40016 7.3 8.50016 3.66667 11.5002 2L19.5002 4.5L21.5002 10Z" fill="#343434"/>
<path d="M12 0C5.37057 0 0 5.37057 0 12C0 18.6294 5.37057 24 12 24C18.6294 24 24 18.6294 24 12C24.0082 5.37057 18.6294 0 12 0ZM18.8747 6.46594C19.7569 7.14096 19.5148 8.27243 18.6274 8.94055C18.0397 9.38297 17.4252 9.72772 16.8899 9.98191C16.0849 10.3642 15.3523 10.121 14.7956 9.42507C14.5095 9.05722 13.8065 8.77929 13.2834 9.05722C12.8022 9.33452 11.9467 10.1489 11.3582 10.729C11.356 10.7312 11.356 10.7348 11.3583 10.737C11.3605 10.7393 11.3605 10.7429 11.3582 10.7451C11.3344 10.7675 11.2112 10.8842 11.0354 11.0599C10.8597 11.2357 10.743 11.3589 10.7206 11.3827C10.7184 11.3851 10.7147 11.385 10.7125 11.3828C10.7102 11.3805 10.7067 11.3805 10.7045 11.3827C10.1163 11.9712 9.31 12.8267 9.0327 13.3079C8.76294 13.8229 9.0327 14.5259 9.40054 14.8202C10.1048 15.3679 10.3383 16.1092 9.95456 16.9147C9.70027 17.4486 9.35579 18.062 8.91407 18.6497C8.24735 19.5366 7.11741 19.7826 6.42507 18.9155C6.37358 18.8517 6.32416 18.7876 6.27678 18.7233C5.07377 17.0914 5.70204 14.8812 6.86626 13.2215C6.97275 13.0697 7.08707 12.9105 7.20981 12.7439C8.3297 11.2234 9.26158 10.2589 9.75204 9.79291C10.2262 9.30245 11.1826 8.37875 12.703 7.25068C12.7993 7.17944 12.893 7.11103 12.9843 7.04534C14.7602 5.76747 17.1649 5.1008 18.8747 6.46594Z" fill="url(#paint0_linear_92_2601)"/>
<defs>
<linearGradient id="paint0_linear_92_2601" x1="4.26336" y1="26.8872" x2="24.53" y2="10.1198" gradientUnits="userSpaceOnUse">
<stop offset="0.383624" stop-color="#E2EC8E"/>
<stop offset="1" stop-color="#F2FBAA"/>
</linearGradient>
</defs>
</svg>
